<svg id="_x33_0" enable-background="new 0 0 64 64" height="512" viewBox="0 0 64 64" width="512" xmlns="http://www.w3.org/2000/svg" xmlns:xlink="http://www.w3.org/1999/xlink"><linearGradient id="SVGID_1_" gradientUnits="userSpaceOnUse" x1="32" x2="32" y1="63" y2="1"><stop offset="0" stop-color="#9f2fff"/><stop offset="1" stop-color="#0bb1d3"/></linearGradient><path d="m47 11h-2v-2h2zm-4-2h-2v2h2zm-6 2h2v-2h-2zm2 5.764v-1.764h-4c-1.103 0-2-.897-2-2v-6c0-1.103.897-2 2-2h14c1.103 0 2 .897 2 2v6c0 1.103-.897 2-2 2h-4.382l-1.382 2.764c-.382.762-1.148 1.236-2 1.236-1.233 0-2.236-1.003-2.236-2.236zm2-3.764v3.764c0 .219.35.301.448.105l1.934-3.869h5.618v-6h-14v6zm2 23c0 1.654-1.346 3-3 3s-3-1.346-3-3 1.346-3 3-3 3 1.346 3 3zm-2 0c0-.551-.449-1-1-1s-1 .449-1 1 .449 1 1 1 1-.449 1-1zm22 0c0 1.654-1.346 3-3 3h-1v4h-2v-4h-2v4h-2v-4h-4v14.556c1.19.694 2 1.97 2 3.444v2c0 2.206-1.794 4-4 4h-42c-2.206 0-4-1.794-4-4v-2c0-1.474.81-2.75 2-3.444v-26.556c0-3.309 2.691-6 6-6h12v-5.356c-1.651 2.044-4.174 3.356-7 3.356-4.962 0-9-4.038-9-9s4.038-9 9-9c3.768 0 6.998 2.33 8.337 5.623.914-.991 2.212-1.623 3.663-1.623 2.757 0 5 2.243 5 5v11h12c3.309 0 6 2.691 6 6v6h11c1.654 0 3 1.346 3 3zm-32-13v2h12c1.103 0 2 .833 2 1.857v4.253c.537.549.98 1.188 1.315 1.89h.685v-6c0-2.206-1.794-4-4-4zm-7.912 16 2.437 5.687c.163.38.787.38.95 0l2.437-5.687zm5.912-22h-2v20h2zm0-4h-6v2h6zm-6 24h2v-20h-2zm-2 2.205v-12.205h-12v22h34v-6.685c-.911.435-1.925.685-3 .685-3.86 0-7-3.14-7-7s3.14-7 7-7c1.075 0 2.089.25 3 .685v-2.673l-12-.011v12.204l-2.687 6.271c-.397.925-1.305 1.524-2.313 1.524s-1.916-.599-2.313-1.524zm24-3.205c0-2.757-2.243-5-5-5s-5 2.243-5 5 2.243 5 5 5 5-2.243 5-5zm-22-26v1h6v-1c0-1.654-1.346-3-3-3s-3 1.346-3 3zm-2 0c0-.695-.105-1.366-.295-2h-1.903c.125.629.198 1.295.198 2s-.073 1.371-.197 2h1.903c.189-.634.294-1.305.294-2zm-5.021 4h-3.957c.64 1.221 1.439 2.132 1.979 2.662.538-.53 1.338-1.441 1.978-2.662zm.765-2c.156-.622.256-1.287.256-2s-.1-1.378-.256-2h-5.488c-.156.622-.256 1.287-.256 2s.1 1.378.256 2zm-9.449 0h1.903c-.125-.629-.198-1.295-.198-2s.073-1.371.197-2h-1.902c-.19.634-.295 1.305-.295 2s.105 1.366.295 2zm4.726-6h3.957c-.639-1.221-1.438-2.132-1.978-2.662-.54.53-1.339 1.441-1.979 2.662zm4.856-2.374c.474.663.939 1.462 1.315 2.374h1.544c-.718-1.028-1.706-1.852-2.859-2.374zm-8.613 2.374h1.544c.376-.912.841-1.711 1.315-2.374-1.153.522-2.141 1.346-2.859 2.374zm2.859 10.374c-.475-.664-.939-1.463-1.315-2.374h-1.544c.718 1.028 1.706 1.852 2.859 2.374zm8.613-2.374h-1.544c-.376.912-.841 1.711-1.315 2.374 1.153-.522 2.141-1.346 2.859-2.374zm29.264 43c0-1.103-.897-2-2-2h-12v1c0 1.654-1.246 3-2.778 3h-12.444c-1.532 0-2.778-1.346-2.778-3v-1h-12c-1.103 0-2 .897-2 2v2c0 1.103.897 2 2 2h42c1.103 0 2-.897 2-2zm-30-1c0 .542.356 1 .778 1h12.444c.422 0 .778-.458.778-1v-1h-14zm28-17h-.685c-.335.701-.778 1.34-1.315 1.89v8.11c0 1.103-.897 2-2 2h-34c-1.103 0-2-.897-2-2v-22.143c0-1.024.897-1.857 2-1.857h12v-2h-12c-2.206 0-4 1.794-4 4v26h42zm14-3c0-.551-.449-1-1-1h-13.08c.047.328.08.66.08 1s-.033.672-.08 1h13.08c.551 0 1-.449 1-1zm-20 9h-2v2h2zm-4 0h-2v2h2zm-26-10h8v-2h-8zm0 4h8v-2h-8zm0 4h8v-2h-8zm2-14h-2v2h2zm2 2h4v-2h-4zm-4 16h2v-2h-2zm4 0h4v-2h-4zm18-2h-2v2h2z" fill="url(#SVGID_1_)"/></svg>