<?xml version="1.0" encoding="UTF-8"?>
<svg xmlns="http://www.w3.org/2000/svg" xmlns:xlink="http://www.w3.org/1999/xlink" width="99pt" height="99pt" viewBox="0 0 99 99" version="1.1">
<defs>
<linearGradient id="linear0" gradientUnits="userSpaceOnUse" x1="32" y1="63" x2="32" y2="1" gradientTransform="matrix(1.544932,0,0,1.543381,0,0)">
<stop offset="0" style="stop-color:rgb(62.352941%,18.431373%,100%);stop-opacity:1;"/>
<stop offset="1" style="stop-color:rgb(4.313725%,69.411765%,82.745098%);stop-opacity:1;"/>
</linearGradient>
</defs>
<g id="surface1">
<path style=" stroke:none;fill-rule:nonzero;fill:url(#linear0);" d="M 72.613281 16.976562 L 69.523438 16.976562 L 69.523438 13.890625 L 72.613281 13.890625 Z M 66.433594 13.890625 L 63.34375 13.890625 L 63.34375 16.976562 L 66.433594 16.976562 Z M 57.164062 16.976562 L 60.253906 16.976562 L 60.253906 13.890625 L 57.164062 13.890625 Z M 60.253906 25.875 L 60.253906 23.152344 L 54.074219 23.152344 C 52.371094 23.152344 50.984375 21.765625 50.984375 20.0625 L 50.984375 10.804688 C 50.984375 9.101562 52.371094 7.71875 54.074219 7.71875 L 75.703125 7.71875 C 77.40625 7.71875 78.792969 9.101562 78.792969 10.804688 L 78.792969 20.0625 C 78.792969 21.765625 77.40625 23.152344 75.703125 23.152344 L 68.929688 23.152344 L 66.796875 27.417969 C 66.207031 28.59375 65.023438 29.324219 63.707031 29.324219 C 61.800781 29.324219 60.253906 27.777344 60.253906 25.875 Z M 63.34375 20.0625 L 63.34375 25.875 C 63.34375 26.210938 63.882812 26.339844 64.035156 26.035156 L 67.023438 20.0625 L 75.703125 20.0625 L 75.703125 10.804688 L 54.074219 10.804688 L 54.074219 20.0625 Z M 66.433594 55.5625 C 66.433594 58.113281 64.351562 60.191406 61.796875 60.191406 C 59.242188 60.191406 57.164062 58.113281 57.164062 55.5625 C 57.164062 53.007812 59.242188 50.929688 61.796875 50.929688 C 64.351562 50.929688 66.433594 53.007812 66.433594 55.5625 Z M 63.34375 55.5625 C 63.34375 54.710938 62.648438 54.019531 61.796875 54.019531 C 60.945312 54.019531 60.253906 54.710938 60.253906 55.5625 C 60.253906 56.410156 60.945312 57.105469 61.796875 57.105469 C 62.648438 57.105469 63.34375 56.410156 63.34375 55.5625 Z M 97.332031 55.5625 C 97.332031 58.113281 95.25 60.191406 92.695312 60.191406 L 91.152344 60.191406 L 91.152344 66.367188 L 88.0625 66.367188 L 88.0625 60.191406 L 84.972656 60.191406 L 84.972656 66.367188 L 81.882812 66.367188 L 81.882812 60.191406 L 75.703125 60.191406 L 75.703125 82.65625 C 77.539062 83.730469 78.792969 85.699219 78.792969 87.972656 L 78.792969 91.058594 C 78.792969 94.464844 76.019531 97.234375 72.613281 97.234375 L 7.726562 97.234375 C 4.316406 97.234375 1.546875 94.464844 1.546875 91.058594 L 1.546875 87.972656 C 1.546875 85.699219 2.796875 83.730469 4.636719 82.65625 L 4.636719 41.671875 C 4.636719 36.5625 8.792969 32.410156 13.90625 32.410156 L 32.445312 32.410156 L 32.445312 24.144531 C 29.894531 27.300781 25.996094 29.324219 21.628906 29.324219 C 13.960938 29.324219 7.726562 23.09375 7.726562 15.433594 C 7.726562 7.773438 13.960938 1.542969 21.628906 1.542969 C 27.453125 1.542969 32.441406 5.140625 34.507812 10.222656 C 35.921875 8.695312 37.925781 7.71875 40.167969 7.71875 C 44.429688 7.71875 47.894531 11.179688 47.894531 15.433594 L 47.894531 32.410156 L 66.433594 32.410156 C 71.542969 32.410156 75.703125 36.5625 75.703125 41.671875 L 75.703125 50.929688 L 92.695312 50.929688 C 95.25 50.929688 97.332031 53.007812 97.332031 55.5625 Z M 47.894531 35.496094 L 47.894531 38.585938 L 66.433594 38.585938 C 68.136719 38.585938 69.523438 39.871094 69.523438 41.449219 L 69.523438 48.015625 C 70.351562 48.863281 71.035156 49.847656 71.554688 50.929688 L 72.613281 50.929688 L 72.613281 41.671875 C 72.613281 38.265625 69.839844 35.496094 66.433594 35.496094 Z M 35.667969 60.191406 L 39.433594 68.96875 C 39.683594 69.554688 40.648438 69.554688 40.902344 68.96875 L 44.667969 60.191406 Z M 44.804688 26.238281 L 41.714844 26.238281 L 41.714844 57.105469 L 44.804688 57.105469 Z M 44.804688 20.0625 L 35.535156 20.0625 L 35.535156 23.152344 L 44.804688 23.152344 Z M 35.535156 57.105469 L 38.625 57.105469 L 38.625 26.238281 L 35.535156 26.238281 Z M 32.445312 60.507812 L 32.445312 41.671875 L 13.90625 41.671875 L 13.90625 75.625 L 66.433594 75.625 L 66.433594 65.308594 C 65.023438 65.980469 63.457031 66.367188 61.796875 66.367188 C 55.835938 66.367188 50.984375 61.519531 50.984375 55.5625 C 50.984375 49.605469 55.835938 44.757812 61.796875 44.757812 C 63.457031 44.757812 65.023438 45.144531 66.433594 45.8125 L 66.433594 41.6875 L 47.894531 41.671875 L 47.894531 60.507812 L 43.742188 70.1875 C 43.128906 71.613281 41.726562 72.539062 40.167969 72.539062 C 38.613281 72.539062 37.207031 71.613281 36.59375 70.1875 Z M 69.523438 55.5625 C 69.523438 51.304688 66.058594 47.84375 61.796875 47.84375 C 57.539062 47.84375 54.074219 51.304688 54.074219 55.5625 C 54.074219 59.816406 57.539062 63.277344 61.796875 63.277344 C 66.058594 63.277344 69.523438 59.816406 69.523438 55.5625 Z M 35.535156 15.433594 L 35.535156 16.976562 L 44.804688 16.976562 L 44.804688 15.433594 C 44.804688 12.882812 42.722656 10.804688 40.167969 10.804688 C 37.613281 10.804688 35.535156 12.882812 35.535156 15.433594 Z M 32.445312 15.433594 C 32.445312 14.363281 32.28125 13.324219 31.988281 12.347656 L 29.046875 12.347656 C 29.238281 13.316406 29.355469 14.34375 29.355469 15.433594 C 29.355469 16.523438 29.238281 17.550781 29.046875 18.519531 L 31.988281 18.519531 C 32.28125 17.542969 32.445312 16.503906 32.445312 15.433594 Z M 24.6875 21.605469 L 18.574219 21.605469 C 19.5625 23.492188 20.796875 24.898438 21.632812 25.714844 C 22.460938 24.898438 23.699219 23.492188 24.6875 21.605469 Z M 25.867188 18.519531 C 26.109375 17.5625 26.265625 16.535156 26.265625 15.433594 C 26.265625 14.332031 26.109375 13.304688 25.867188 12.347656 L 17.390625 12.347656 C 17.148438 13.304688 16.996094 14.332031 16.996094 15.433594 C 16.996094 16.535156 17.148438 17.5625 17.390625 18.519531 Z M 11.269531 18.519531 L 14.210938 18.519531 C 14.015625 17.550781 13.90625 16.523438 13.90625 15.433594 C 13.90625 14.34375 14.015625 13.316406 14.210938 12.347656 L 11.269531 12.347656 C 10.976562 13.324219 10.816406 14.363281 10.816406 15.433594 C 10.816406 16.503906 10.976562 17.542969 11.269531 18.519531 Z M 18.570312 9.261719 L 24.683594 9.261719 C 23.699219 7.375 22.460938 5.96875 21.628906 5.152344 C 20.792969 5.96875 19.558594 7.375 18.570312 9.261719 Z M 26.074219 5.59375 C 26.804688 6.621094 27.523438 7.851562 28.105469 9.261719 L 30.492188 9.261719 C 29.382812 7.671875 27.855469 6.402344 26.074219 5.59375 Z M 12.765625 9.261719 L 15.152344 9.261719 C 15.734375 7.851562 16.453125 6.621094 17.183594 5.59375 C 15.402344 6.402344 13.878906 7.671875 12.765625 9.261719 Z M 17.183594 25.269531 C 16.449219 24.246094 15.734375 23.011719 15.152344 21.605469 L 12.765625 21.605469 C 13.878906 23.195312 15.402344 24.46875 17.183594 25.269531 Z M 30.492188 21.605469 L 28.105469 21.605469 C 27.523438 23.015625 26.804688 24.246094 26.074219 25.269531 C 27.855469 24.46875 29.382812 23.195312 30.492188 21.605469 Z M 75.703125 87.972656 C 75.703125 86.269531 74.316406 84.886719 72.613281 84.886719 L 54.074219 84.886719 L 54.074219 86.429688 C 54.074219 88.980469 52.148438 91.058594 49.78125 91.058594 L 30.554688 91.058594 C 28.191406 91.058594 26.265625 88.980469 26.265625 86.429688 L 26.265625 84.886719 L 7.726562 84.886719 C 6.019531 84.886719 4.636719 86.269531 4.636719 87.972656 L 4.636719 91.058594 C 4.636719 92.761719 6.019531 94.144531 7.726562 94.144531 L 72.613281 94.144531 C 74.316406 94.144531 75.703125 92.761719 75.703125 91.058594 Z M 29.355469 86.429688 C 29.355469 87.265625 29.902344 87.972656 30.554688 87.972656 L 49.78125 87.972656 C 50.433594 87.972656 50.984375 87.265625 50.984375 86.429688 L 50.984375 84.886719 L 29.355469 84.886719 Z M 72.613281 60.191406 L 71.554688 60.191406 C 71.035156 61.273438 70.351562 62.257812 69.523438 63.109375 L 69.523438 75.625 C 69.523438 77.328125 68.136719 78.710938 66.433594 78.710938 L 13.90625 78.710938 C 12.199219 78.710938 10.816406 77.328125 10.816406 75.625 L 10.816406 41.449219 C 10.816406 39.871094 12.199219 38.585938 13.90625 38.585938 L 32.445312 38.585938 L 32.445312 35.496094 L 13.90625 35.496094 C 10.496094 35.496094 7.726562 38.265625 7.726562 41.671875 L 7.726562 81.800781 L 72.613281 81.800781 Z M 94.242188 55.5625 C 94.242188 54.710938 93.546875 54.019531 92.695312 54.019531 L 72.488281 54.019531 C 72.558594 54.523438 72.613281 55.039062 72.613281 55.5625 C 72.613281 56.085938 72.558594 56.597656 72.488281 57.105469 L 92.695312 57.105469 C 93.546875 57.105469 94.242188 56.410156 94.242188 55.5625 Z M 63.34375 69.453125 L 60.253906 69.453125 L 60.253906 72.539062 L 63.34375 72.539062 Z M 57.164062 69.453125 L 54.074219 69.453125 L 54.074219 72.539062 L 57.164062 72.539062 Z M 16.996094 54.019531 L 29.355469 54.019531 L 29.355469 50.929688 L 16.996094 50.929688 Z M 16.996094 60.191406 L 29.355469 60.191406 L 29.355469 57.105469 L 16.996094 57.105469 Z M 16.996094 66.367188 L 29.355469 66.367188 L 29.355469 63.277344 L 16.996094 63.277344 Z M 20.085938 44.757812 L 16.996094 44.757812 L 16.996094 47.84375 L 20.085938 47.84375 Z M 23.175781 47.84375 L 29.355469 47.84375 L 29.355469 44.757812 L 23.175781 44.757812 Z M 16.996094 72.539062 L 20.085938 72.539062 L 20.085938 69.453125 L 16.996094 69.453125 Z M 23.175781 72.539062 L 29.355469 72.539062 L 29.355469 69.453125 L 23.175781 69.453125 Z M 50.984375 69.453125 L 47.894531 69.453125 L 47.894531 72.539062 L 50.984375 72.539062 Z M 50.984375 69.453125 "/>
</g>
</svg>
