<?xml version="1.0" encoding="UTF-8"?>
<svg xmlns="http://www.w3.org/2000/svg" xmlns:xlink="http://www.w3.org/1999/xlink" width="500pt" height="500pt" viewBox="0 0 500 500" version="1.1">
<defs>
<linearGradient id="linear0" gradientUnits="userSpaceOnUse" x1="32" y1="63" x2="32" y2="1" gradientTransform="matrix(7.786956,0,0,7.779138,0,0)">
<stop offset="0" style="stop-color:rgb(62.352941%,18.431373%,100%);stop-opacity:1;"/>
<stop offset="1" style="stop-color:rgb(4.313725%,69.411765%,82.745098%);stop-opacity:1;"/>
</linearGradient>
</defs>
<g id="surface1">
<path style=" stroke:none;fill-rule:nonzero;fill:url(#linear0);" d="M 365.996094 85.566406 L 350.421875 85.566406 L 350.421875 70.011719 L 365.996094 70.011719 Z M 334.847656 70.011719 L 319.273438 70.011719 L 319.273438 85.566406 L 334.847656 85.566406 Z M 288.125 85.566406 L 303.699219 85.566406 L 303.699219 70.011719 L 288.125 70.011719 Z M 303.699219 130.417969 L 303.699219 116.695312 L 272.550781 116.695312 C 263.96875 116.695312 256.976562 109.707031 256.976562 101.121094 L 256.976562 54.460938 C 256.976562 45.875 263.96875 38.90625 272.550781 38.90625 L 381.566406 38.90625 C 390.152344 38.90625 397.140625 45.875 397.140625 54.460938 L 397.140625 101.121094 C 397.140625 109.707031 390.152344 116.695312 381.566406 116.695312 L 347.429688 116.695312 L 336.679688 138.195312 C 333.703125 144.121094 327.738281 147.804688 321.105469 147.804688 C 311.496094 147.804688 303.699219 140.007812 303.699219 130.417969 Z M 319.273438 101.121094 L 319.273438 130.417969 C 319.273438 132.113281 321.988281 132.761719 322.757812 131.226562 L 337.820312 101.121094 L 381.566406 101.121094 L 381.566406 54.460938 L 272.550781 54.460938 L 272.550781 101.121094 Z M 334.847656 280.054688 C 334.847656 292.910156 324.351562 303.382812 311.476562 303.382812 C 298.601562 303.382812 288.125 292.910156 288.125 280.054688 C 288.125 267.175781 298.601562 256.703125 311.476562 256.703125 C 324.351562 256.703125 334.847656 267.175781 334.847656 280.054688 Z M 319.273438 280.054688 C 319.273438 275.761719 315.769531 272.277344 311.476562 272.277344 C 307.183594 272.277344 303.699219 275.761719 303.699219 280.054688 C 303.699219 284.324219 307.183594 287.828125 311.476562 287.828125 C 315.769531 287.828125 319.273438 284.324219 319.273438 280.054688 Z M 490.585938 280.054688 C 490.585938 292.910156 480.089844 303.382812 467.214844 303.382812 L 459.4375 303.382812 L 459.4375 334.511719 L 443.863281 334.511719 L 443.863281 303.382812 L 428.289062 303.382812 L 428.289062 334.511719 L 412.714844 334.511719 L 412.714844 303.382812 L 381.566406 303.382812 L 381.566406 416.613281 C 390.820312 422.027344 397.140625 431.953125 397.140625 443.410156 L 397.140625 458.964844 C 397.140625 476.132812 383.164062 490.09375 365.996094 490.09375 L 38.945312 490.09375 C 21.757812 490.09375 7.796875 476.132812 7.796875 458.964844 L 7.796875 443.410156 C 7.796875 431.953125 14.097656 422.027344 23.371094 416.613281 L 23.371094 210.039062 C 23.371094 184.285156 44.320312 163.359375 70.09375 163.359375 L 163.535156 163.359375 L 163.535156 121.695312 C 150.679688 137.605469 131.027344 147.804688 109.015625 147.804688 C 70.367188 147.804688 38.945312 116.398438 38.945312 77.789062 C 38.945312 39.179688 70.367188 7.777344 109.015625 7.777344 C 138.371094 7.777344 163.515625 25.910156 173.929688 51.527344 C 181.058594 43.828125 191.15625 38.90625 202.460938 38.90625 C 223.941406 38.90625 241.402344 56.347656 241.402344 77.789062 L 241.402344 163.359375 L 334.847656 163.359375 C 360.601562 163.359375 381.566406 184.285156 381.566406 210.039062 L 381.566406 256.703125 L 467.214844 256.703125 C 480.089844 256.703125 490.585938 267.175781 490.585938 280.054688 Z M 241.402344 178.910156 L 241.402344 194.484375 L 334.847656 194.484375 C 343.429688 194.484375 350.421875 200.964844 350.421875 208.917969 L 350.421875 242.015625 C 354.59375 246.285156 358.039062 251.25 360.660156 256.703125 L 365.996094 256.703125 L 365.996094 210.039062 C 365.996094 192.871094 352.015625 178.910156 334.847656 178.910156 Z M 179.777344 303.382812 L 198.757812 347.625 C 200.019531 350.578125 204.882812 350.578125 206.160156 347.625 L 225.140625 303.382812 Z M 225.832031 132.25 L 210.257812 132.25 L 210.257812 287.828125 L 225.832031 287.828125 Z M 225.832031 101.121094 L 179.109375 101.121094 L 179.109375 116.695312 L 225.832031 116.695312 Z M 179.109375 287.828125 L 194.683594 287.828125 L 194.683594 132.25 L 179.109375 132.25 Z M 163.535156 304.980469 L 163.535156 210.039062 L 70.09375 210.039062 L 70.09375 381.175781 L 334.847656 381.175781 L 334.847656 329.175781 C 327.738281 332.5625 319.84375 334.511719 311.476562 334.511719 C 281.429688 334.511719 256.976562 310.078125 256.976562 280.054688 C 256.976562 250.027344 281.429688 225.59375 311.476562 225.59375 C 319.84375 225.59375 327.738281 227.542969 334.847656 230.910156 L 334.847656 210.117188 L 241.402344 210.039062 L 241.402344 304.980469 L 220.476562 353.769531 C 217.382812 360.953125 210.316406 365.621094 202.460938 365.621094 C 194.625 365.621094 187.535156 360.953125 184.445312 353.769531 Z M 350.421875 280.054688 C 350.421875 258.59375 332.957031 241.148438 311.476562 241.148438 C 290.015625 241.148438 272.550781 258.59375 272.550781 280.054688 C 272.550781 301.492188 290.015625 318.9375 311.476562 318.9375 C 332.957031 318.9375 350.421875 301.492188 350.421875 280.054688 Z M 179.109375 77.789062 L 179.109375 85.566406 L 225.832031 85.566406 L 225.832031 77.789062 C 225.832031 64.933594 215.335938 54.460938 202.460938 54.460938 C 189.582031 54.460938 179.109375 64.933594 179.109375 77.789062 Z M 163.535156 77.789062 C 163.535156 72.394531 162.707031 67.160156 161.230469 62.234375 L 146.40625 62.234375 C 147.371094 67.117188 147.960938 72.296875 147.960938 77.789062 C 147.960938 83.285156 147.371094 88.460938 146.40625 93.34375 L 161.230469 93.34375 C 162.707031 88.421875 163.535156 83.183594 163.535156 77.789062 Z M 124.433594 108.898438 L 93.621094 108.898438 C 98.601562 118.410156 104.824219 125.496094 109.035156 129.609375 C 113.210938 125.496094 119.453125 118.410156 124.433594 108.898438 Z M 130.378906 93.34375 C 131.601562 88.519531 132.386719 83.34375 132.386719 77.789062 C 132.386719 72.238281 131.601562 67.058594 130.378906 62.234375 L 87.65625 62.234375 C 86.433594 67.058594 85.664062 72.238281 85.664062 77.789062 C 85.664062 83.34375 86.433594 88.519531 87.65625 93.34375 Z M 56.800781 93.34375 L 71.628906 93.34375 C 70.644531 88.460938 70.09375 83.285156 70.09375 77.789062 C 70.09375 72.296875 70.644531 67.117188 71.628906 62.234375 L 56.800781 62.234375 C 55.324219 67.160156 54.519531 72.394531 54.519531 77.789062 C 54.519531 83.183594 55.324219 88.421875 56.800781 93.34375 Z M 93.601562 46.683594 L 124.414062 46.683594 C 119.453125 37.171875 113.210938 30.085938 109.015625 25.96875 C 104.804688 30.085938 98.582031 37.171875 93.601562 46.683594 Z M 131.421875 28.195312 C 135.105469 33.371094 138.726562 39.574219 141.660156 46.683594 L 153.691406 46.683594 C 148.097656 38.667969 140.402344 32.269531 131.421875 28.195312 Z M 64.34375 46.683594 L 76.371094 46.683594 C 79.304688 39.574219 82.929688 33.371094 86.609375 28.195312 C 77.632812 32.269531 69.953125 38.667969 64.34375 46.683594 Z M 86.609375 127.367188 C 82.910156 122.207031 79.304688 115.988281 76.371094 108.898438 L 64.34375 108.898438 C 69.953125 116.910156 77.632812 123.332031 86.609375 127.367188 Z M 153.691406 108.898438 L 141.660156 108.898438 C 138.726562 116.007812 135.105469 122.207031 131.421875 127.367188 C 140.402344 123.332031 148.097656 116.910156 153.691406 108.898438 Z M 381.566406 443.410156 C 381.566406 434.828125 374.578125 427.855469 365.996094 427.855469 L 272.550781 427.855469 L 272.550781 435.632812 C 272.550781 448.492188 262.84375 458.964844 250.914062 458.964844 L 154.003906 458.964844 C 142.09375 458.964844 132.386719 448.492188 132.386719 435.632812 L 132.386719 427.855469 L 38.945312 427.855469 C 30.339844 427.855469 23.371094 434.828125 23.371094 443.410156 L 23.371094 458.964844 C 23.371094 467.550781 30.339844 474.519531 38.945312 474.519531 L 365.996094 474.519531 C 374.578125 474.519531 381.566406 467.550781 381.566406 458.964844 Z M 147.960938 435.632812 C 147.960938 439.847656 150.71875 443.410156 154.003906 443.410156 L 250.914062 443.410156 C 254.203125 443.410156 256.976562 439.847656 256.976562 435.632812 L 256.976562 427.855469 L 147.960938 427.855469 Z M 365.996094 303.382812 L 360.660156 303.382812 C 358.039062 308.839844 354.59375 313.800781 350.421875 318.089844 L 350.421875 381.175781 C 350.421875 389.757812 343.429688 396.730469 334.847656 396.730469 L 70.09375 396.730469 C 61.488281 396.730469 54.519531 389.757812 54.519531 381.175781 L 54.519531 208.917969 C 54.519531 200.964844 61.488281 194.484375 70.09375 194.484375 L 163.535156 194.484375 L 163.535156 178.910156 L 70.09375 178.910156 C 52.902344 178.910156 38.945312 192.871094 38.945312 210.039062 L 38.945312 412.300781 L 365.996094 412.300781 Z M 475.011719 280.054688 C 475.011719 275.761719 471.507812 272.277344 467.214844 272.277344 L 365.363281 272.277344 C 365.71875 274.816406 365.996094 277.414062 365.996094 280.054688 C 365.996094 282.691406 365.71875 285.269531 365.363281 287.828125 L 467.214844 287.828125 C 471.507812 287.828125 475.011719 284.324219 475.011719 280.054688 Z M 319.273438 350.066406 L 303.699219 350.066406 L 303.699219 365.621094 L 319.273438 365.621094 Z M 288.125 350.066406 L 272.550781 350.066406 L 272.550781 365.621094 L 288.125 365.621094 Z M 85.664062 272.277344 L 147.960938 272.277344 L 147.960938 256.703125 L 85.664062 256.703125 Z M 85.664062 303.382812 L 147.960938 303.382812 L 147.960938 287.828125 L 85.664062 287.828125 Z M 85.664062 334.511719 L 147.960938 334.511719 L 147.960938 318.9375 L 85.664062 318.9375 Z M 101.238281 225.59375 L 85.664062 225.59375 L 85.664062 241.148438 L 101.238281 241.148438 Z M 116.8125 241.148438 L 147.960938 241.148438 L 147.960938 225.59375 L 116.8125 225.59375 Z M 85.664062 365.621094 L 101.238281 365.621094 L 101.238281 350.066406 L 85.664062 350.066406 Z M 116.8125 365.621094 L 147.960938 365.621094 L 147.960938 350.066406 L 116.8125 350.066406 Z M 256.976562 350.066406 L 241.402344 350.066406 L 241.402344 365.621094 L 256.976562 365.621094 Z M 256.976562 350.066406 "/>
</g>
</svg>
